# xmcd CD database file
#
# Track frame offsets:
#	150
#	25832
#	37900
#
# Disc length: 654 seconds
#
# Revision: 2
# Processed by: cddbd v1.5.1PL2 Copyright (c) Steve Scherf et al.
# Submitted via: CDex 1.60beta1-cs1
#
DISCID=17028c03
DTITLE=love love straw - red
DYEAR=2000
DGENRE=Indie
TTITLE0=red
TTITLE1=she hits the sky
TTITLE2=headache
EXTD=YEAR: 2000
EXTT0=
EXTT1=
EXTT2=
PLAYORDER=
